name D:\school\WTK\thesis\model\3dpredictsim\Results\batch_windlass\Pog_s1_tmt_bCst_d00_k500_WL20_ig24_pas.mot
datacolumns 128
datarows 4
range 1.08078552 1.11320908
endheader
time	pelvis_tilt	pelvis_list	pelvis_rotation	pelvis_tx	pelvis_ty	pelvis_tz	hip_flexion_l	hip_adduction_l	hip_rotation_l	hip_flexion_r	hip_adduction_r	hip_rotation_r	knee_angle_l	knee_angle_r	ankle_angle_l	ankle_angle_r	subtalar_angle_l	subtalar_angle_r	tmt_angle_l	tmt_angle_r	mtp_angle_l	mtp_angle_r	lumbar_extension	lumbar_bending	lumbar_rotation	arm_flex_l	arm_add_l	arm_rot_l	arm_flex_r	arm_add_r	arm_rot_r	elbow_flex_l	elbow_flex_r	pro_sup_l	pro_sup_r	glut_med1_l/activation	glut_med2_l/activation	glut_med3_l/activation	glut_min1_l/activation	glut_min2_l/activation	glut_min3_l/activation	semimem_l/activation	semiten_l/activation	bifemlh_l/activation	bifemsh_l/activation	sar_l/activation	add_long_l/activation	add_brev_l/activation	add_mag1_l/activation	add_mag2_l/activation	add_mag3_l/activation	tfl_l/activation	pect_l/activation	grac_l/activation	glut_max1_l/activation	glut_max2_l/activation	glut_max3_l/activation	iliacus_l/activation	psoas_l/activation	quad_fem_l/activation	gem_l/activation	peri_l/activation	rect_fem_l/activation	vas_med_l/activation	vas_int_l/activation	vas_lat_l/activation	med_gas_l/activation	lat_gas_l/activation	soleus_l/activation	tib_post_l/activation	flex_dig_l/activation	flex_hal_l/activation	tib_ant_l/activation	per_brev_l/activation	per_long_l/activation	per_tert_l/activation	ext_dig_l/activation	ext_hal_l/activation	ercspn_l/activation	intobl_l/activation	extobl_l/activation	glut_med1_r/activation	glut_med2_r/activation	glut_med3_r/activation	glut_min1_r/activation	glut_min2_r/activation	glut_min3_r/activation	semimem_r/activation	semiten_r/activation	bifemlh_r/activation	bifemsh_r/activation	sar_r/activation	add_long_r/activation	add_brev_r/activation	add_mag1_r/activation	add_mag2_r/activation	add_mag3_r/activation	tfl_r/activation	pect_r/activation	grac_r/activation	glut_max1_r/activation	glut_max2_r/activation	glut_max3_r/activation	iliacus_r/activation	psoas_r/activation	quad_fem_r/activation	gem_r/activation	peri_r/activation	rect_fem_r/activation	vas_med_r/activation	vas_int_r/activation	vas_lat_r/activation	med_gas_r/activation	lat_gas_r/activation	soleus_r/activation	tib_post_r/activation	flex_dig_r/activation	flex_hal_r/activation	tib_ant_r/activation	per_brev_r/activation	per_long_r/activation	per_tert_r/activation	ext_dig_r/activation	ext_hal_r/activation	ercspn_r/activation	intobl_r/activation	extobl_r/activation	
          1.08078552	         -2.92216488	         -1.61042932	          5.89702238	          1.35098189	          0.85720695	         -0.00228881	        -17.90299780	         -1.43622354	          8.13216825	         31.64500879	          2.30253465	         -3.86066782	        -10.25273479	        -18.34899305	         -1.47260230	          1.20790422	         12.60899141	          0.20464400	         -4.05515699	         -0.32970315	         27.49480102	          1.64514513	         -1.03233741	          0.01207508	         -1.86328965	          5.55185120	        -13.46665146	         17.03536258	         -8.51000074	        -13.58206540	          9.84991575	         33.61116296	         15.69140154	         86.51662706	         86.51662706	          0.22829144	          0.08217893	          0.05000000	          0.26548529	          0.17176783	          0.08217976	          0.05000048	          0.05000007	          0.05000004	          0.06637766	          0.08242265	          0.18811541	          0.07173297	          0.05000051	          0.05000060	          0.05000024	          0.29345935	          0.08692526	          0.05000016	          0.05000053	          0.05000038	          0.05000030	          0.33592224	          0.56828670	          0.05000002	          0.05000008	          0.05000001	          0.27018896	          0.10949591	          0.05806126	          0.09132611	          0.26839736	          0.34795513	          0.22996799	          0.19669811	          0.19490270	          0.25536692	          0.05000000	          0.10246969	          0.16506584	          0.05000008	          0.05000002	          0.05000005	          0.05000000	          0.05000004	          0.05153775	          0.05900653	          0.05900612	          0.05000055	          0.05900114	          0.05000438	          0.05000272	          0.05900657	          0.05900655	          0.23614497	          0.05000007	          0.05000006	          0.13505725	          0.19126214	          0.15231471	          0.17531809	          0.12141881	          0.05000024	          0.05899593	          0.09146368	          0.05531481	          0.13993467	          0.14256920	          0.05900651	          0.05698645	          0.27584319	          0.05044772	          0.05609388	          0.05000003	          0.13092088	          0.13269036	          0.11283685	          0.05900654	          0.05900654	          0.05900654	          0.05000009	          0.05000015	          0.05000110	          0.52017438	          0.29134590	          0.16541481	          0.32614234	          0.57908677	          0.15320825	          0.05000001	          0.10151825	          0.10323293	
          1.09159337	         -2.91008233	         -1.72211499	          6.13298809	          1.36770698	          0.85621687	         -0.00208804	        -17.62119612	         -1.74109114	          7.93753914	         31.03672562	          2.74258444	         -3.62440976	        -12.32951294	        -18.43074720	         -2.47839905	          0.96463634	         13.60574701	         -0.38951092	         -4.76675066	         -0.38081855	         28.41453285	          1.89688075	         -0.80745863	          0.27909504	         -1.93125027	          5.25035900	        -13.49111376	         17.28174579	         -9.54534883	        -13.57400600	          9.65699454	         34.59940794	         15.56786554	         86.51662706	         86.51662706	          0.19344587	          0.06963545	          0.05585148	          0.22496261	          0.14554983	          0.06963616	          0.05000076	          0.05000004	          0.05000007	          0.05624603	          0.06984201	          0.23452133	          0.23153770	          0.20433274	          0.05000717	          0.13506369	          0.24867047	          0.08217935	          0.05000044	          0.05000051	          0.05000032	          0.05000029	          0.28464829	          0.50246510	          0.05000016	          0.05900678	          0.05900657	          0.22894832	          0.09278307	          0.15939711	          0.11832420	          0.22743016	          0.29484452	          0.19486651	          0.16667483	          0.16515349	          0.21638865	          0.07956931	          0.08682911	          0.13987080	          0.05000002	          0.12060350	          0.05000009	          0.05000014	          0.06963545	          0.05900656	          0.05000000	          0.05000001	          0.08643036	          0.05000001	          0.05000001	          0.05000003	          0.05000003	          0.05000004	          0.20010068	          0.05000025	          0.05900673	          0.11444270	          0.16206862	          0.39598060	          0.27645313	          0.10645756	          0.05000004	          0.05000051	          0.07750315	          0.05900641	          0.13867810	          0.15527289	          0.05000008	          0.06963543	          0.57910671	          0.10381616	          0.07350174	          0.06963543	          0.20635479	          0.20587731	          0.17789924	          0.05000000	          0.05000000	          0.05000000	          0.05000000	          0.05900653	          0.05000023	          0.62531904	          0.26198470	          0.14649297	          0.60834149	          0.62601656	          0.31157407	          0.05000000	          0.08602287	          0.08747583	
          1.10240123	         -2.89372457	         -1.84800182	          6.34106946	          1.38463035	          0.85505739	         -0.00191186	        -17.24724061	         -2.03790266	          7.73060198	         30.28933103	          3.13344026	         -3.30896056	        -14.58001457	        -19.00228372	         -3.53878445	          1.01141541	         14.52354415	         -1.05362562	         -5.33751484	         -0.62769653	         28.79001511	          2.02232085	         -0.56885379	          0.56881347	         -1.98548231	          4.87353980	        -13.51957050	         17.44274050	        -10.56958856	        -13.57979689	          9.54828878	         35.60493066	         15.43047000	         86.51662706	         86.51662706	          0.22112428	          0.05900656	          0.05000002	          0.19062518	          0.12333365	          0.05900716	          0.05000070	          0.05000059	          0.05000074	          0.05000002	          0.05918163	          0.20968278	          0.33504077	          0.17314427	          0.06619347	          0.11444946	          0.28043807	          0.06963610	          0.05806977	          0.05000209	          0.05000307	          0.05900610	          0.24120061	          0.46439816	          0.05000259	          0.05000035	          0.05000004	          0.19400248	          0.07862101	          0.13506732	          0.10026363	          0.19271604	          0.24984052	          0.16512279	          0.14123419	          0.13994509	          0.18335990	          0.17924803	          0.15591803	          0.17219995	          0.05787673	          0.23688602	          0.15632984	          0.08017184	          0.05900655	          0.05000004	          0.31864785	          0.30078092	          0.38218999	          0.21041741	          0.05000023	          0.34475039	          0.09039972	          0.08672609	          0.17439439	          0.05000001	          0.05000021	          0.09697473	          0.27797917	          0.33553958	          0.23425660	          0.16203803	          0.05000006	          0.06963608	          0.14613741	          0.05000001	          0.18381170	          0.16416837	          0.05900654	          0.05900654	          0.49071396	          0.08797006	          0.23015486	          0.05900653	          0.19974456	          0.21732207	          0.18481692	          0.05349083	          0.05181306	          0.05900653	          0.05000000	          0.05000005	          0.05000008	          0.55619762	          0.22199631	          0.12413282	          0.51548735	          0.58454982	          0.26401984	          0.05045243	          0.08217880	          0.07412383	
          1.11320908	         -2.87567737	         -1.97648450	          6.51769600	          1.40151590	          0.85380226	         -0.00172967	        -16.73917865	         -2.31350289	          7.52298311	         29.40753902	          3.49786736	         -2.97342208	        -17.05920573	        -19.52683266	         -4.58099517	          1.21688716	         15.35059611	         -1.73307104	         -5.59728933	         -0.94771170	         28.20379908	          2.08147668	         -0.33792872	          0.86345567	         -2.02893818	          4.46209725	        -13.55622525	         17.54367835	        -11.53171446	        -13.59293470	          9.53168418	         36.60160123	         15.25703248	         86.51662706	         86.51662706	          0.18737269	          0.05000004	          0.05000001	          0.16152902	          0.10450848	          0.05000055	          0.05003871	          0.05000011	          0.05000012	          0.05000007	          0.05014867	          0.19813121	          0.28390139	          0.14671621	          0.05609004	          0.09698045	          0.31727636	          0.05900717	          0.05000011	          0.05000024	          0.05000014	          0.05000009	          0.20438464	          0.42810963	          0.05000001	          0.05000009	          0.05000005	          0.16439066	          0.06662060	          0.11445115	          0.08495977	          0.16330056	          0.21170577	          0.13991904	          0.11967715	          0.11858445	          0.15537268	          0.19720042	          0.13211930	          0.14591600	          0.15580004	          0.23682227	          0.13246825	          0.11332333	          0.05000000	          0.05000000	          0.42324861	          0.47962230	          0.53257334	          0.29612478	          0.39840092	          0.38769245	          0.07660147	          0.11399763	          0.14777546	          0.08009538	          0.05000017	          0.08217287	          0.23554944	          0.28432406	          0.19850069	          0.17047471	          0.05000006	          0.05900714	          0.12383164	          0.28775564	          0.24505959	          0.17491537	          0.05000001	          0.05000002	          0.41581317	          0.07454267	          0.19502502	          0.05000000	          0.27100895	          0.30091504	          0.25376230	          0.05000000	          0.05000000	          0.05000000	          0.10747113	          0.05000069	          0.05000008	          0.64777720	          0.18811160	          0.10518564	          0.43680531	          0.55789273	          0.36604977	          0.06918893	          0.06963534	          0.06280984	
